STARTFONT 2.1
FONT -gbdfed-Unknown-Medium-R-Normal--16-120-96-96-C-100-FontSpecific-0
SIZE 12 96 96
FONTBOUNDINGBOX 7 10 0 0
STARTPROPERTIES 9
POINT_SIZE 120
PIXEL_SIZE 16
RESOLUTION_X 96
RESOLUTION_Y 96
FONT_ASCENT 9
FONT_DESCENT 0
AVERAGE_WIDTH 100
SPACING "C"
_GBDFED_INFO "Edited with gbdfed 1.6."
ENDPROPERTIES
CHARS 68
STARTCHAR char35
ENCODING 35
SWIDTH 437 0
DWIDTH 7 0
BBX 7 10 0 0
BITMAP
00
00
50
50
F8
50
50
F8
50
50
ENDCHAR
STARTCHAR char38
ENCODING 38
SWIDTH 437 0
DWIDTH 7 0
BBX 7 10 0 0
BITMAP
00
00
40
A0
A0
40
A0
98
90
68
ENDCHAR
STARTCHAR char39
ENCODING 39
SWIDTH 437 0
DWIDTH 7 0
BBX 7 10 0 0
BITMAP
00
00
20
20
40
00
00
00
00
00
ENDCHAR
STARTCHAR char45
ENCODING 45
SWIDTH 437 0
DWIDTH 7 0
BBX 7 10 0 0
BITMAP
00
00
00
00
00
78
00
00
00
00
ENDCHAR
STARTCHAR char46
ENCODING 46
SWIDTH 437 0
DWIDTH 7 0
BBX 7 10 0 0
BITMAP
00
00
00
00
00
00
00
00
60
60
ENDCHAR
STARTCHAR char47
ENCODING 47
SWIDTH 437 0
DWIDTH 7 0
BBX 7 10 0 0
BITMAP
00
00
00
04
08
10
20
40
00
00
ENDCHAR
STARTCHAR char79
ENCODING 48
SWIDTH 437 0
DWIDTH 7 0
BBX 7 10 0 0
BITMAP
00
00
70
88
88
88
88
88
88
70
ENDCHAR
STARTCHAR char73
ENCODING 49
SWIDTH 437 0
DWIDTH 7 0
BBX 7 10 0 0
BITMAP
00
00
40
C0
40
40
40
40
40
E0
ENDCHAR
STARTCHAR char50
ENCODING 50
SWIDTH 437 0
DWIDTH 7 0
BBX 7 10 0 0
BITMAP
00
00
70
88
08
10
20
40
80
F8
ENDCHAR
STARTCHAR char51
ENCODING 51
SWIDTH 437 0
DWIDTH 7 0
BBX 7 10 0 0
BITMAP
00
00
70
88
08
30
08
08
88
70
ENDCHAR
STARTCHAR char52
ENCODING 52
SWIDTH 437 0
DWIDTH 7 0
BBX 7 10 0 0
BITMAP
00
00
10
30
50
90
F8
10
10
10
ENDCHAR
STARTCHAR char53
ENCODING 53
SWIDTH 437 0
DWIDTH 7 0
BBX 7 10 0 0
BITMAP
00
00
F0
80
80
F0
08
08
88
70
ENDCHAR
STARTCHAR char54
ENCODING 54
SWIDTH 437 0
DWIDTH 7 0
BBX 7 10 0 0
BITMAP
00
00
70
88
80
F0
88
88
88
70
ENDCHAR
STARTCHAR char55
ENCODING 55
SWIDTH 437 0
DWIDTH 7 0
BBX 7 10 0 0
BITMAP
00
00
F8
08
08
10
20
20
20
20
ENDCHAR
STARTCHAR char56
ENCODING 56
SWIDTH 437 0
DWIDTH 7 0
BBX 7 10 0 0
BITMAP
00
00
70
88
88
70
88
88
88
70
ENDCHAR
STARTCHAR char57
ENCODING 57
SWIDTH 437 0
DWIDTH 7 0
BBX 7 10 0 0
BITMAP
00
00
70
88
88
88
78
08
88
70
ENDCHAR
STARTCHAR char65
ENCODING 65
SWIDTH 437 0
DWIDTH 7 0
BBX 7 10 0 0
BITMAP
00
00
20
50
88
88
F8
88
88
88
ENDCHAR
STARTCHAR char65
ENCODING 66
SWIDTH 437 0
DWIDTH 7 0
BBX 7 10 0 0
BITMAP
00
00
F0
88
88
F0
88
88
88
F0
ENDCHAR
STARTCHAR char67
ENCODING 67
SWIDTH 437 0
DWIDTH 7 0
BBX 7 10 0 0
BITMAP
00
00
70
88
80
80
80
80
88
70
ENDCHAR
STARTCHAR char68
ENCODING 68
SWIDTH 437 0
DWIDTH 7 0
BBX 7 10 0 0
BITMAP
00
00
F0
88
88
88
88
88
88
F0
ENDCHAR
STARTCHAR char69
ENCODING 69
SWIDTH 437 0
DWIDTH 7 0
BBX 7 10 0 0
BITMAP
00
00
F0
80
80
E0
80
80
80
F0
ENDCHAR
STARTCHAR char70
ENCODING 70
SWIDTH 437 0
DWIDTH 7 0
BBX 7 10 0 0
BITMAP
00
00
F0
80
80
E0
80
80
80
80
ENDCHAR
STARTCHAR char71
ENCODING 71
SWIDTH 437 0
DWIDTH 7 0
BBX 7 10 0 0
BITMAP
00
00
70
88
80
80
B8
88
88
70
ENDCHAR
STARTCHAR char72
ENCODING 72
SWIDTH 437 0
DWIDTH 7 0
BBX 7 10 0 0
BITMAP
00
00
88
88
88
F8
88
88
88
88
ENDCHAR
STARTCHAR char73
ENCODING 73
SWIDTH 437 0
DWIDTH 7 0
BBX 7 10 0 0
BITMAP
00
00
E0
40
40
40
40
40
40
E0
ENDCHAR
STARTCHAR char74
ENCODING 74
SWIDTH 437 0
DWIDTH 7 0
BBX 7 10 0 0
BITMAP
00
00
10
10
10
10
10
10
90
60
ENDCHAR
STARTCHAR char75
ENCODING 75
SWIDTH 437 0
DWIDTH 7 0
BBX 7 10 0 0
BITMAP
00
00
88
90
A0
C0
C0
A0
90
88
ENDCHAR
STARTCHAR char76
ENCODING 76
SWIDTH 437 0
DWIDTH 7 0
BBX 7 10 0 0
BITMAP
00
00
80
80
80
80
80
80
80
F0
ENDCHAR
STARTCHAR char77
ENCODING 77
SWIDTH 437 0
DWIDTH 7 0
BBX 7 10 0 0
BITMAP
00
00
88
D8
A8
A8
88
88
88
88
ENDCHAR
STARTCHAR char78
ENCODING 78
SWIDTH 437 0
DWIDTH 7 0
BBX 7 10 0 0
BITMAP
00
00
88
88
C8
A8
98
88
88
88
ENDCHAR
STARTCHAR char79
ENCODING 79
SWIDTH 437 0
DWIDTH 7 0
BBX 7 10 0 0
BITMAP
00
00
70
88
88
88
88
88
88
70
ENDCHAR
STARTCHAR char80
ENCODING 80
SWIDTH 437 0
DWIDTH 7 0
BBX 7 10 0 0
BITMAP
00
00
F0
88
88
F0
80
80
80
80
ENDCHAR
STARTCHAR char81
ENCODING 81
SWIDTH 437 0
DWIDTH 7 0
BBX 7 10 0 0
BITMAP
00
00
70
88
88
88
88
A8
90
68
ENDCHAR
STARTCHAR char82
ENCODING 82
SWIDTH 437 0
DWIDTH 7 0
BBX 7 10 0 0
BITMAP
00
00
F0
88
88
F0
C0
A0
90
88
ENDCHAR
STARTCHAR char83
ENCODING 83
SWIDTH 437 0
DWIDTH 7 0
BBX 7 10 0 0
BITMAP
00
00
70
88
80
70
08
08
88
70
ENDCHAR
STARTCHAR char84
ENCODING 84
SWIDTH 437 0
DWIDTH 7 0
BBX 7 10 0 0
BITMAP
00
00
F8
20
20
20
20
20
20
20
ENDCHAR
STARTCHAR char85
ENCODING 85
SWIDTH 437 0
DWIDTH 7 0
BBX 7 10 0 0
BITMAP
00
00
88
88
88
88
88
88
88
70
ENDCHAR
STARTCHAR char86
ENCODING 86
SWIDTH 437 0
DWIDTH 7 0
BBX 7 10 0 0
BITMAP
00
00
88
88
88
88
88
88
50
20
ENDCHAR
STARTCHAR char87
ENCODING 87
SWIDTH 437 0
DWIDTH 7 0
BBX 7 10 0 0
BITMAP
00
00
88
88
88
A8
A8
F8
D8
88
ENDCHAR
STARTCHAR char88
ENCODING 88
SWIDTH 437 0
DWIDTH 7 0
BBX 7 10 0 0
BITMAP
00
00
88
88
50
20
20
50
88
88
ENDCHAR
STARTCHAR char89
ENCODING 89
SWIDTH 437 0
DWIDTH 7 0
BBX 7 10 0 0
BITMAP
00
00
88
88
88
50
20
20
20
20
ENDCHAR
STARTCHAR char90
ENCODING 90
SWIDTH 437 0
DWIDTH 7 0
BBX 7 10 0 0
BITMAP
00
00
FC
04
08
10
20
40
80
FC
ENDCHAR
STARTCHAR char65
ENCODING 97
SWIDTH 437 0
DWIDTH 7 0
BBX 7 10 0 0
BITMAP
00
00
20
50
88
88
F8
88
88
88
ENDCHAR
STARTCHAR char65
ENCODING 98
SWIDTH 437 0
DWIDTH 7 0
BBX 7 10 0 0
BITMAP
00
00
F0
88
88
F0
88
88
88
F0
ENDCHAR
STARTCHAR char67
ENCODING 99
SWIDTH 437 0
DWIDTH 7 0
BBX 7 10 0 0
BITMAP
00
00
70
88
80
80
80
80
88
70
ENDCHAR
STARTCHAR char68
ENCODING 100
SWIDTH 437 0
DWIDTH 7 0
BBX 7 10 0 0
BITMAP
00
00
F0
88
88
88
88
88
88
F0
ENDCHAR
STARTCHAR char69
ENCODING 101
SWIDTH 437 0
DWIDTH 7 0
BBX 7 10 0 0
BITMAP
00
00
F0
80
80
E0
80
80
80
F0
ENDCHAR
STARTCHAR char70
ENCODING 102
SWIDTH 437 0
DWIDTH 7 0
BBX 7 10 0 0
BITMAP
00
00
F0
80
80
E0
80
80
80
80
ENDCHAR
STARTCHAR char71
ENCODING 103
SWIDTH 437 0
DWIDTH 7 0
BBX 7 10 0 0
BITMAP
00
00
70
88
80
80
B8
88
88
70
ENDCHAR
STARTCHAR char72
ENCODING 104
SWIDTH 437 0
DWIDTH 7 0
BBX 7 10 0 0
BITMAP
00
00
88
88
88
F8
88
88
88
88
ENDCHAR
STARTCHAR char73
ENCODING 105
SWIDTH 437 0
DWIDTH 7 0
BBX 7 10 0 0
BITMAP
00
00
E0
40
40
40
40
40
40
E0
ENDCHAR
STARTCHAR char74
ENCODING 106
SWIDTH 437 0
DWIDTH 7 0
BBX 7 10 0 0
BITMAP
00
00
10
10
10
10
10
10
90
60
ENDCHAR
STARTCHAR char75
ENCODING 107
SWIDTH 437 0
DWIDTH 7 0
BBX 7 10 0 0
BITMAP
00
00
88
90
A0
C0
C0
A0
90
88
ENDCHAR
STARTCHAR char76
ENCODING 108
SWIDTH 437 0
DWIDTH 7 0
BBX 7 10 0 0
BITMAP
00
00
80
80
80
80
80
80
80
F0
ENDCHAR
STARTCHAR char77
ENCODING 109
SWIDTH 437 0
DWIDTH 7 0
BBX 7 10 0 0
BITMAP
00
00
88
D8
A8
A8
88
88
88
88
ENDCHAR
STARTCHAR char78
ENCODING 110
SWIDTH 437 0
DWIDTH 7 0
BBX 7 10 0 0
BITMAP
00
00
88
88
C8
A8
98
88
88
88
ENDCHAR
STARTCHAR char79
ENCODING 111
SWIDTH 437 0
DWIDTH 7 0
BBX 7 10 0 0
BITMAP
00
00
70
88
88
88
88
88
88
70
ENDCHAR
STARTCHAR char80
ENCODING 112
SWIDTH 437 0
DWIDTH 7 0
BBX 7 10 0 0
BITMAP
00
00
F0
88
88
F0
80
80
80
80
ENDCHAR
STARTCHAR char81
ENCODING 113
SWIDTH 437 0
DWIDTH 7 0
BBX 7 10 0 0
BITMAP
00
00
70
88
88
88
88
A8
90
68
ENDCHAR
STARTCHAR char82
ENCODING 114
SWIDTH 437 0
DWIDTH 7 0
BBX 7 10 0 0
BITMAP
00
00
F0
88
88
F0
C0
A0
90
88
ENDCHAR
STARTCHAR char83
ENCODING 115
SWIDTH 437 0
DWIDTH 7 0
BBX 7 10 0 0
BITMAP
00
00
70
88
80
70
08
08
88
70
ENDCHAR
STARTCHAR char84
ENCODING 116
SWIDTH 437 0
DWIDTH 7 0
BBX 7 10 0 0
BITMAP
00
00
F8
20
20
20
20
20
20
20
ENDCHAR
STARTCHAR char85
ENCODING 117
SWIDTH 437 0
DWIDTH 7 0
BBX 7 10 0 0
BITMAP
00
00
88
88
88
88
88
88
88
70
ENDCHAR
STARTCHAR char86
ENCODING 118
SWIDTH 437 0
DWIDTH 7 0
BBX 7 10 0 0
BITMAP
00
00
88
88
88
88
88
88
50
20
ENDCHAR
STARTCHAR char87
ENCODING 119
SWIDTH 437 0
DWIDTH 7 0
BBX 7 10 0 0
BITMAP
00
00
88
88
88
A8
A8
F8
D8
88
ENDCHAR
STARTCHAR char88
ENCODING 120
SWIDTH 437 0
DWIDTH 7 0
BBX 7 10 0 0
BITMAP
00
00
88
88
50
20
20
50
88
88
ENDCHAR
STARTCHAR char89
ENCODING 121
SWIDTH 437 0
DWIDTH 7 0
BBX 7 10 0 0
BITMAP
00
00
88
88
88
50
20
20
20
20
ENDCHAR
STARTCHAR char90
ENCODING 122
SWIDTH 437 0
DWIDTH 7 0
BBX 7 10 0 0
BITMAP
00
00
FC
04
08
10
20
40
80
FC
ENDCHAR
ENDFONT
